M48
; DRILL file {KiCad (5.1.0-0)} date Thursday, April 18, 2019 at 08:47:44 am
; FORMAT={-:-/ absolute / inch / decimal}
; #@! TF.CreationDate,2019-04-18T08:47:44-07:00
; #@! TF.GenerationSoftware,Kicad,Pcbnew,(5.1.0-0)
FMAT,2
INCH
T1C0.0300
T2C0.0315
T3C0.0394
T4C0.0400
T5C0.1260
%
G90
G05
T1
X0.9Y1.052
X0.9Y0.952
X0.9Y0.852
X1.05Y0.602
X1.05Y0.202
X1.95Y0.602
X1.95Y0.202
X1.3Y1.202
X1.1Y1.052
X1.1Y0.952
X1.1Y0.852
X1.95Y1.202
X1.95Y0.802
X1.75Y1.202
X1.35Y0.302
X1.45Y0.302
X1.45Y0.202
X1.55Y0.302
X1.55Y0.202
X1.65Y0.302
X1.65Y0.202
X0.5Y1.102
X0.5Y0.202
X0.6Y1.102
X0.6Y0.202
X0.9Y0.602
X0.9Y0.202
T2
X1.65Y0.552
X1.25Y0.452
X1.65Y0.802
X1.25Y0.702
X1.45Y0.602
X1.8Y0.952
X1.45Y0.902
X1.8Y0.552
T3
X1.4Y1.202
X1.1Y1.152
X1.65Y1.202
X0.9Y1.152
T4
X1.35Y0.202
T5
X0.15Y0.152
X2.2Y1.152
X0.15Y1.152
X2.2Y0.152
T0
M30
